<?xml version="1.0" encoding="utf-8"?>
<!-- Generator: Adobe Illustrator 24.1.2, SVG Export Plug-In . SVG Version: 6.00 Build 0)  -->
<svg version="1.1" id="Layer_1" xmlns="http://www.w3.org/2000/svg" xmlns:xlink="http://www.w3.org/1999/xlink" x="0px" y="0px"
	 viewBox="0 0 221 317.1" style="enable-background:new 0 0 221 317.1;" xml:space="preserve">
<style type="text/css">
	.st0{fill:#0064FF;}
	.st1{fill:#FFFFFF;}
</style>
<g>
	<g>
		<g>
			<g>
				<path class="st0" d="M110.5,13.9C54.7,13.9,9.2,59.3,9.2,115.2c0,75.9,101.3,188,101.3,188s101.3-112.1,101.3-188
					C211.8,59.3,166.4,13.9,110.5,13.9z"/>
			</g>
			<g>
				<path class="st1" d="M154.9,84.1c-4.2-20.8-22.4-36.4-44.4-36.4C93.1,47.7,78,57.6,70.4,72c-18.1,1.9-32.2,17.3-32.2,35.9
					c0,19.9,16.2,36.2,36.2,36.2h78.3c16.6,0,30.1-13.5,30.1-30.1C182.9,98,170.5,85.1,154.9,84.1z"/>
			</g>
		</g>
	</g>
</g>
</svg>
