<?xml version="1.0" encoding="utf-8"?>
<!-- Generator: Adobe Illustrator 24.1.2, SVG Export Plug-In . SVG Version: 6.00 Build 0)  -->
<svg version="1.1" id="Layer_1" xmlns="http://www.w3.org/2000/svg" xmlns:xlink="http://www.w3.org/1999/xlink" x="0px" y="0px"
	 viewBox="0 0 1551.3 317.1" style="enable-background:new 0 0 1551.3 317.1;" xml:space="preserve">
<style type="text/css">
	.st0{fill:#0064FF;}
	.st1{fill:#FFFFFF;}
	.st2{fill:#222222;}
</style>
<g>
	<g>
		<g>
			<g>
				<path class="st0" d="M112.7,13.9c-55.8,0-101.3,45.4-101.3,101.3c0,75.9,101.3,188,101.3,188S214,191.1,214,115.2
					C214,59.3,168.6,13.9,112.7,13.9z"/>
			</g>
			<g>
				<path class="st1" d="M157.1,84.1c-4.2-20.8-22.4-36.4-44.4-36.4c-17.4,0-32.5,9.9-40.1,24.3c-18.1,1.9-32.2,17.3-32.2,35.9
					c0,19.9,16.2,36.2,36.2,36.2h78.3c16.6,0,30.1-13.5,30.1-30.1C185.1,98,172.7,85.1,157.1,84.1z"/>
			</g>
		</g>
	</g>
	<g>
		<path class="st2" d="M315,96.3v51.8h59.7v23.3H315v72.4h-25.5V73h100.9v23.3H315z"/>
		<path class="st2" d="M758.8,185.7c0-36.7,29-60.2,62.5-60.2c18.8,0,34.9,7.7,45.1,19.8l-16.1,15.1c-6.7-7.4-16.9-12.1-28.5-12.1
			c-21.6,0-38.7,15.4-38.7,37.4s17.1,37.4,38.7,37.4c11.6,0,21.8-4.7,28.5-12.1l16.1,15.1c-10.2,12.1-26.3,19.8-45.1,19.8
			C787.8,246,758.8,222.4,758.8,185.7z"/>
		<path class="st2" d="M1023.6,208.5h22.6c0,9.2,8.2,17.1,21.3,17.1c13.4,0,21.6-6.2,21.6-14.9c0-7.7-6.2-11.6-14.9-13.6l-15.6-3.7
			c-21.6-5.7-31.5-16.8-31.5-34c0-18.8,17.1-34,41.1-34c19.8,0,41.1,10.4,41.1,34.7h-23.3c0-8.4-8.7-14.1-17.4-14.1
			c-10.2,0-17.1,6.2-17.1,14.1c0,7.2,6.7,11.2,13.9,12.9l17.6,4.2c24.8,6.2,30.2,21.6,30.2,34c0,22.1-21.8,34.9-45.6,34.9
			C1046.2,246.2,1024.2,232.6,1023.6,208.5z"/>
		<path class="st2" d="M1196.2,148.3h-24.8v95.4h-24.3v-95.4h-20.8V128h20.8V84.6h24.3V128h24.8V148.3z"/>
		<path class="st2" d="M1357.1,85.9c0-8.9,7.7-15.6,16.6-15.6c9.2,0,16.6,6.7,16.6,15.6c0,8.9-7.4,15.6-16.6,15.6
			C1364.8,101.5,1357.1,94.8,1357.1,85.9z M1361.6,128h24.3v115.7h-24.3V128z"/>
		<path class="st2" d="M602.1,125.5c-33,0-60.7,23.3-60.7,60c0,0.1,0,0.2,0,0.4h0v58.3h24.3v-58.3h0c0-0.1,0-0.2,0-0.4
			c0-22.3,16.6-37.2,36.4-37.2c4.3,0,8.5,0.7,12.4,2l4.2-22.8C613.4,126.2,607.8,125.5,602.1,125.5z"/>
		<path class="st2" d="M395.3,185.5c0-36.7,27.7-60,60.7-60c33,0,61,23.3,61,60s-28,60.7-61,60.7
			C423.1,246.2,395.3,222.2,395.3,185.5z M492.7,185.5c0-22.3-16.8-37.2-36.7-37.2c-19.8,0-36.4,14.9-36.4,37.2
			c0,22.6,16.6,37.7,36.4,37.7C475.9,223.2,492.7,208,492.7,185.5z"/>
		<g>
			<path class="st2" d="M1275.9,125.5c-33,0-60.7,23.3-60.7,60c0,0.1,0,0.2,0,0.4h-0.1V300h24.3v-65.3c10.2,7.4,23,11.5,36.6,11.5
				c33,0,61-24,61-60.7C1336.9,148.8,1308.9,125.5,1275.9,125.5z M1275.9,223.2c-19.8,0-36.4-15.1-36.4-37.7
				c0-22.3,16.6-37.2,36.4-37.2c19.8,0,36.7,14.9,36.7,37.2C1312.6,208,1295.7,223.2,1275.9,223.2z"/>
		</g>
		<path class="st2" d="M1539.8,185.5c0-36.7-28-60-61-60c-33,0-60.7,23.3-60.7,60c0,0.1,0,0.2,0,0.4h0v57.9h24.3v-57.9h0
			c0-0.1,0-0.2,0-0.4c0-22.3,16.6-37.2,36.4-37.2c19.8,0,36.7,14.9,36.7,37.2c0,0.1,0,0.2,0,0.4h0v57.9h24.3v-56.5
			C1539.8,186.7,1539.8,186.1,1539.8,185.5z"/>
		<g>
			<path class="st2" d="M1000,185.5c0-36.7-28-60-61-60c-33,0-60.7,23.3-60.7,60c0,36.7,27.7,60.7,60.7,60.7
				c13.6,0,26.4-4.1,36.7-11.5v9h24.3v-58h0C1000,185.7,1000,185.6,1000,185.5z M939.1,223.2c-19.8,0-36.4-15.1-36.4-37.7
				c0-22.3,16.6-37.2,36.4-37.2c19.8,0,36.7,14.9,36.7,37.2C975.7,208,958.9,223.2,939.1,223.2z"/>
		</g>
		<g>
			<path class="st2" d="M716.1,206.4c-6.6,10.5-18.1,16.8-30.9,16.8c-16.7,0-31.1-10.7-35.2-27.5l95.4,0c0.5-3.3,0.7-6.7,0.7-10.2
				c0-36.7-28-60-61-60c-33,0-60.7,23.3-60.7,60s27.8,60.7,60.7,60.7c22.1,0,41.9-10.8,52.6-28.9L716.1,206.4z M685.2,148.3
				c16.9,0,31.6,10.8,35.6,27.8h-71C653.7,159.1,668.3,148.3,685.2,148.3z"/>
		</g>
	</g>
</g>
</svg>
